<?xml version="1.0" encoding="utf-8"?>
<!-- Generator: Adobe Illustrator 25.0.1, SVG Export Plug-In . SVG Version: 6.00 Build 0)  -->
<svg version="1.1" id="Layer_1" xmlns="http://www.w3.org/2000/svg" xmlns:xlink="http://www.w3.org/1999/xlink" x="0px" y="0px"
	 viewBox="0 0 230 47" style="enable-background:new 0 0 230 47;" xml:space="preserve">
<style type="text/css">
	.st0{fill:#222222;}
	.st1{fill:#49A6E9;}
</style>
<g>
	<path class="st0" d="M21.2,25.2c-0.3,2.3-1.1,4-2.5,5.2c-1.4,1.2-3.3,1.8-5.6,1.8c-2.5,0-4.5-0.9-6.1-2.7c-1.5-1.8-2.3-4.2-2.3-7.3
		v-2.1c0-2,0.4-3.7,1.1-5.2c0.7-1.5,1.7-2.7,3-3.5c1.3-0.8,2.8-1.2,4.5-1.2c2.3,0,4.1,0.6,5.4,1.9c1.4,1.3,2.2,3,2.4,5.2h-2.8
		c-0.2-1.7-0.8-2.9-1.6-3.7c-0.8-0.8-1.9-1.1-3.4-1.1c-1.8,0-3.2,0.7-4.2,2c-1,1.3-1.5,3.2-1.5,5.7v2.1c0,2.3,0.5,4.2,1.5,5.5
		c1,1.4,2.3,2.1,4.1,2.1c1.6,0,2.8-0.4,3.6-1.1c0.8-0.7,1.4-1.9,1.7-3.7H21.2z M26.9,23.9c0-1.6,0.3-2.9,0.9-4.2
		c0.6-1.2,1.5-2.2,2.5-2.9c1.1-0.7,2.3-1,3.7-1c2.2,0,3.9,0.7,5.2,2.2c1.3,1.5,2,3.5,2,6v0.2c0,1.5-0.3,2.9-0.9,4.2
		c-0.6,1.2-1.4,2.2-2.5,2.9c-1.1,0.7-2.4,1-3.8,1c-2.1,0-3.9-0.7-5.2-2.2c-1.3-1.5-2-3.5-2-5.9V23.9z M29.6,24.3
		c0,1.8,0.4,3.2,1.2,4.2c0.8,1.1,1.9,1.6,3.3,1.6c1.4,0,2.5-0.5,3.3-1.6c0.8-1.1,1.2-2.6,1.2-4.5c0-1.7-0.4-3.1-1.2-4.2
		c-0.8-1.1-1.9-1.6-3.3-1.6c-1.3,0-2.4,0.5-3.2,1.6C30,20.7,29.6,22.3,29.6,24.3z M47.1,23.9c0-2.4,0.6-4.4,1.7-5.9
		c1.2-1.5,2.7-2.2,4.5-2.2c1.9,0,3.3,0.6,4.4,1.9V9.5h2.7V32h-2.5l-0.1-1.7c-1.1,1.3-2.6,2-4.5,2c-1.8,0-3.3-0.8-4.5-2.3
		c-1.2-1.5-1.7-3.5-1.7-5.9V23.9z M49.8,24.3c0,1.8,0.4,3.2,1.1,4.2c0.7,1,1.8,1.5,3.1,1.5c1.7,0,3-0.8,3.8-2.3v-7.3
		c-0.8-1.5-2.1-2.2-3.7-2.2c-1.3,0-2.4,0.5-3.1,1.5C50.1,20.7,49.8,22.2,49.8,24.3z M70.6,32h-2.7V16.2h2.7V32z M67.7,11.9
		c0-0.4,0.1-0.8,0.4-1.1c0.3-0.3,0.7-0.5,1.2-0.5c0.5,0,0.9,0.2,1.2,0.5s0.4,0.7,0.4,1.1c0,0.4-0.1,0.8-0.4,1.1
		c-0.3,0.3-0.7,0.4-1.2,0.4c-0.5,0-0.9-0.1-1.2-0.4C67.8,12.8,67.7,12.4,67.7,11.9z M80.5,16.2l0.1,2c1.2-1.5,2.8-2.3,4.7-2.3
		c3.3,0,5,1.9,5.1,5.7V32h-2.7V21.5c0-1.1-0.3-2-0.8-2.5c-0.5-0.5-1.3-0.8-2.4-0.8c-0.9,0-1.7,0.2-2.3,0.7c-0.7,0.5-1.2,1.1-1.6,1.8
		V32h-2.7V16.2H80.5z M96.9,23.9c0-2.5,0.6-4.4,1.7-5.9c1.1-1.5,2.7-2.2,4.5-2.2c1.9,0,3.4,0.7,4.5,2.1l0.1-1.8h2.5v15.5
		c0,2.1-0.6,3.7-1.8,4.8c-1.2,1.2-2.8,1.8-4.9,1.8c-1.1,0-2.3-0.2-3.4-0.7c-1.1-0.5-1.9-1.2-2.5-2l1.4-1.6c1.2,1.4,2.6,2.2,4.3,2.2
		c1.3,0,2.3-0.4,3.1-1.1c0.7-0.7,1.1-1.8,1.1-3.1v-1.4c-1.1,1.2-2.6,1.9-4.4,1.9c-1.9,0-3.4-0.7-4.5-2.2
		C97.4,28.6,96.9,26.5,96.9,23.9z M99.6,24.3c0,1.8,0.4,3.2,1.1,4.2c0.7,1,1.8,1.5,3.1,1.5c1.7,0,3-0.8,3.8-2.3v-7.2
		c-0.8-1.5-2.1-2.3-3.7-2.3c-1.3,0-2.3,0.5-3.1,1.5C99.9,20.7,99.6,22.2,99.6,24.3z"/>
	<path class="st1" d="M140,26.4h-8.9l-2,5.6h-2.9l8.1-21.3h2.5l8.2,21.3H142L140,26.4z M131.9,24.1h7.3l-3.6-10L131.9,24.1z
		 M149.7,23.9c0-2.4,0.6-4.4,1.7-5.9c1.2-1.5,2.7-2.2,4.5-2.2c1.9,0,3.3,0.6,4.4,1.9V9.5h2.7V32h-2.5l-0.1-1.7c-1.1,1.3-2.6,2-4.5,2
		c-1.8,0-3.3-0.8-4.5-2.3c-1.2-1.5-1.7-3.5-1.7-5.9V23.9z M152.4,24.3c0,1.8,0.4,3.2,1.1,4.2c0.7,1,1.8,1.5,3.1,1.5
		c1.7,0,3-0.8,3.8-2.3v-7.3c-0.8-1.5-2.1-2.2-3.7-2.2c-1.3,0-2.4,0.5-3.1,1.5C152.8,20.7,152.4,22.2,152.4,24.3z M169.6,23.9
		c0-2.4,0.6-4.4,1.7-5.9c1.2-1.5,2.7-2.2,4.5-2.2c1.9,0,3.3,0.6,4.4,1.9V9.5h2.7V32h-2.5l-0.1-1.7c-1.1,1.3-2.6,2-4.5,2
		c-1.8,0-3.3-0.8-4.5-2.3c-1.2-1.5-1.7-3.5-1.7-5.9V23.9z M172.3,24.3c0,1.8,0.4,3.2,1.1,4.2c0.7,1,1.8,1.5,3.1,1.5
		c1.7,0,3-0.8,3.8-2.3v-7.3c-0.8-1.5-2.1-2.2-3.7-2.2c-1.3,0-2.4,0.5-3.1,1.5C172.7,20.7,172.3,22.2,172.3,24.3z M193.2,32h-2.7
		V16.2h2.7V32z M190.2,11.9c0-0.4,0.1-0.8,0.4-1.1c0.3-0.3,0.7-0.5,1.2-0.5s0.9,0.2,1.2,0.5c0.3,0.3,0.4,0.7,0.4,1.1
		c0,0.4-0.1,0.8-0.4,1.1c-0.3,0.3-0.7,0.4-1.2,0.4s-0.9-0.1-1.2-0.4C190.4,12.8,190.2,12.4,190.2,11.9z M206.9,30.1
		c1,0,1.8-0.3,2.5-0.9c0.7-0.6,1.1-1.3,1.2-2.2h2.6c0,0.9-0.4,1.8-0.9,2.6c-0.6,0.8-1.3,1.5-2.3,2c-1,0.5-2,0.7-3,0.7
		c-2.2,0-3.9-0.7-5.2-2.2c-1.3-1.4-1.9-3.4-1.9-5.9v-0.5c0-1.5,0.3-2.9,0.9-4.1c0.6-1.2,1.4-2.1,2.4-2.8c1.1-0.7,2.3-1,3.8-1
		c1.8,0,3.3,0.5,4.4,1.6c1.2,1.1,1.8,2.4,1.9,4.1h-2.6c-0.1-1-0.5-1.9-1.2-2.5c-0.7-0.7-1.6-1-2.6-1c-1.4,0-2.4,0.5-3.2,1.5
		c-0.8,1-1.1,2.4-1.1,4.3v0.5c0,1.8,0.4,3.2,1.1,4.2C204.4,29.6,205.5,30.1,206.9,30.1z M222.9,12.3v3.8h3v2.1h-3v9.8
		c0,0.6,0.1,1.1,0.4,1.4c0.3,0.3,0.7,0.5,1.3,0.5c0.3,0,0.7-0.1,1.3-0.2V32c-0.7,0.2-1.4,0.3-2.1,0.3c-1.2,0-2.1-0.4-2.7-1.1
		c-0.6-0.7-0.9-1.8-0.9-3.1v-9.8h-2.9v-2.1h2.9v-3.8H222.9z"/>
</g>
</svg>
